<svg id="svg" version="1.1" width="512" height="512" xmlns="http://www.w3.org/2000/svg" xmlns:xlink="http://www.w3.org/1999/xlink" style="display: block;"><g id="svgg"><path id="path0" d="M164.392 1.108 C 150.563 7.130,148.197 23.239,158.590 40.625 C 167.020 54.727,173.123 60.210,176.901 57.075 C 178.194 56.001,178.977 56.910,181.593 62.532 C 186.400 72.858,182.938 78.571,167.382 85.989 C 141.438 98.359,140.310 116.832,164.273 136.895 C 169.467 141.244,169.512 140.294,164.414 133.923 C 148.249 113.725,149.651 103.000,169.779 92.865 C 189.864 82.752,194.702 70.604,184.003 57.149 C 181.584 54.106,181.350 53.397,181.766 50.363 C 182.207 47.140,181.985 46.640,177.204 40.089 C 168.748 28.502,164.053 18.595,165.379 15.138 C 166.598 11.962,171.946 15.869,176.096 22.966 C 180.617 30.698,182.501 31.035,189.939 25.443 C 195.329 21.392,196.480 21.492,195.767 25.951 C 195.018 30.634,192.744 34.458,187.978 39.048 C 177.694 48.952,185.027 56.970,195.683 47.473 C 215.652 29.675,213.005 0.137,192.305 9.773 C 190.007 10.843,188.045 11.719,187.945 11.719 C 187.846 11.719,186.654 10.172,185.297 8.282 C 180.034 0.954,171.484 -1.980,164.392 1.108 M196.921 56.692 C 193.294 59.969,191.819 63.788,192.511 68.113 C 193.597 74.905,201.595 86.719,205.108 86.719 C 207.311 86.719,209.661 89.917,210.969 94.697 C 212.679 100.944,209.547 104.819,198.408 110.236 C 177.609 120.351,177.081 135.886,197.001 151.663 C 200.860 154.718,200.798 153.754,196.793 148.425 C 184.517 132.087,185.866 123.803,202.011 116.380 C 217.929 109.060,221.821 96.948,211.717 86.175 C 210.379 84.749,209.375 82.824,209.375 81.685 C 209.375 80.557,207.878 77.659,205.925 75.006 C 202.339 70.134,199.378 63.643,200.315 62.706 C 201.193 61.827,203.359 63.587,205.756 67.125 C 208.746 71.540,209.641 71.728,213.716 68.802 C 218.830 65.130,218.139 70.363,212.783 75.877 C 207.672 81.138,210.377 85.743,216.265 81.808 C 223.146 77.209,227.546 62.965,223.093 59.704 C 221.129 58.266,216.827 58.282,214.608 59.736 C 212.985 60.800,212.760 60.724,211.363 58.646 C 207.674 53.157,201.725 52.352,196.921 56.692 M163.672 162.965 C 136.363 165.729,121.547 168.953,104.392 175.865 C 66.485 191.137,47.778 216.398,50.071 249.219 C 60.107 392.925,194.033 452.248,270.795 346.988 C 270.907 346.836,273.021 348.359,275.495 350.374 C 302.901 372.699,338.112 358.702,348.562 321.327 C 356.967 291.267,333.724 259.810,304.619 261.857 L 301.035 262.109 302.147 256.641 C 311.669 209.798,272.892 173.548,203.516 164.437 C 194.371 163.235,169.919 162.332,163.672 162.965 M189.272 178.153 C 253.693 182.535,300.230 215.777,285.482 246.875 C 260.670 299.199,128.589 308.705,77.939 261.812 C 38.231 225.049,89.776 179.894,174.219 177.469 C 176.152 177.413,182.926 177.721,189.272 178.153 M193.359 196.160 C 176.291 197.596,139.569 213.650,108.524 233.247 L 105.161 235.370 107.463 237.262 C 126.581 252.968,177.630 274.840,198.419 276.233 C 230.630 278.390,241.776 252.795,214.503 239.300 L 208.735 236.446 214.620 233.888 C 228.127 228.016,233.046 221.291,230.568 212.087 C 227.237 199.717,214.729 194.363,193.359 196.160 M203.422 210.892 C 207.511 212.872,209.814 215.431,210.836 219.134 C 212.662 225.748,209.064 229.810,196.875 234.894 C 194.963 235.692,195.007 235.752,198.995 237.775 C 217.852 247.340,211.723 263.431,189.657 262.292 C 175.620 261.567,147.626 250.747,129.035 238.860 L 124.866 236.195 130.597 232.769 C 164.534 212.480,190.555 204.663,203.422 210.892 M314.039 289.441 C 328.212 296.770,328.404 318.307,314.412 331.204 C 305.728 339.209,293.287 336.200,287.340 324.657 L 285.755 321.580 287.452 316.063 C 288.385 313.029,290.298 306.157,291.703 300.791 C 295.237 287.292,302.624 283.538,314.039 289.441 " stroke="none" fill="#010002" fill-rule="evenodd"></path><path id="path1" d="M164.392 1.108 C 150.563 7.130,148.197 23.239,158.590 40.625 C 167.020 54.727,173.123 60.210,176.901 57.075 C 178.194 56.001,178.977 56.910,181.593 62.532 C 186.400 72.858,182.938 78.571,167.382 85.989 C 141.438 98.359,140.310 116.832,164.273 136.895 C 169.467 141.244,169.512 140.294,164.414 133.923 C 148.249 113.725,149.651 103.000,169.779 92.865 C 189.864 82.752,194.702 70.604,184.003 57.149 C 181.584 54.106,181.350 53.397,181.766 50.363 C 182.207 47.140,181.985 46.640,177.204 40.089 C 168.748 28.502,164.053 18.595,165.379 15.138 C 166.598 11.962,171.946 15.869,176.096 22.966 C 180.617 30.698,182.501 31.035,189.939 25.443 C 195.329 21.392,196.480 21.492,195.767 25.951 C 195.018 30.634,192.744 34.458,187.978 39.048 C 177.694 48.952,185.027 56.970,195.683 47.473 C 215.652 29.675,213.005 0.137,192.305 9.773 C 190.007 10.843,188.045 11.719,187.945 11.719 C 187.846 11.719,186.654 10.172,185.297 8.282 C 180.034 0.954,171.484 -1.980,164.392 1.108 M196.921 56.692 C 193.294 59.969,191.819 63.788,192.511 68.113 C 193.597 74.905,201.595 86.719,205.108 86.719 C 207.311 86.719,209.661 89.917,210.969 94.697 C 212.679 100.944,209.547 104.819,198.408 110.236 C 177.609 120.351,177.081 135.886,197.001 151.663 C 200.860 154.718,200.798 153.754,196.793 148.425 C 184.517 132.087,185.866 123.803,202.011 116.380 C 217.929 109.060,221.821 96.948,211.717 86.175 C 210.379 84.749,209.375 82.824,209.375 81.685 C 209.375 80.557,207.878 77.659,205.925 75.006 C 202.339 70.134,199.378 63.643,200.315 62.706 C 201.193 61.827,203.359 63.587,205.756 67.125 C 208.746 71.540,209.641 71.728,213.716 68.802 C 218.830 65.130,218.139 70.363,212.783 75.877 C 207.672 81.138,210.377 85.743,216.265 81.808 C 223.146 77.209,227.546 62.965,223.093 59.704 C 221.129 58.266,216.827 58.282,214.608 59.736 C 212.985 60.800,212.760 60.724,211.363 58.646 C 207.674 53.157,201.725 52.352,196.921 56.692 M163.672 162.965 C 136.363 165.729,121.547 168.953,104.392 175.865 C 66.485 191.137,47.778 216.398,50.071 249.219 C 60.107 392.925,194.033 452.248,270.795 346.988 C 270.907 346.836,273.021 348.359,275.495 350.374 C 302.901 372.699,338.112 358.702,348.562 321.327 C 356.967 291.267,333.724 259.810,304.619 261.857 L 301.035 262.109 302.147 256.641 C 311.669 209.798,272.892 173.548,203.516 164.437 C 194.371 163.235,169.919 162.332,163.672 162.965 M189.272 178.153 C 253.693 182.535,300.230 215.777,285.482 246.875 C 260.670 299.199,128.589 308.705,77.939 261.812 C 38.231 225.049,89.776 179.894,174.219 177.469 C 176.152 177.413,182.926 177.721,189.272 178.153 M193.359 196.160 C 176.291 197.596,139.569 213.650,108.524 233.247 L 105.161 235.370 107.463 237.262 C 126.581 252.968,177.630 274.840,198.419 276.233 C 230.630 278.390,241.776 252.795,214.503 239.300 L 208.735 236.446 214.620 233.888 C 228.127 228.016,233.046 221.291,230.568 212.087 C 227.237 199.717,214.729 194.363,193.359 196.160 M203.422 210.892 C 207.511 212.872,209.814 215.431,210.836 219.134 C 212.662 225.748,209.064 229.810,196.875 234.894 C 194.963 235.692,195.007 235.752,198.995 237.775 C 217.852 247.340,211.723 263.431,189.657 262.292 C 175.620 261.567,147.626 250.747,129.035 238.860 L 124.866 236.195 130.597 232.769 C 164.534 212.480,190.555 204.663,203.422 210.892 M314.039 289.441 C 328.212 296.770,328.404 318.307,314.412 331.204 C 305.728 339.209,293.287 336.200,287.340 324.657 L 285.755 321.580 287.452 316.063 C 288.385 313.029,290.298 306.157,291.703 300.791 C 295.237 287.292,302.624 283.538,314.039 289.441 " stroke="none" fill="#010002" fill-rule="evenodd"></path><path id="path2" d="M164.392 1.108 C 150.563 7.130,148.197 23.239,158.590 40.625 C 167.020 54.727,173.123 60.210,176.901 57.075 C 178.194 56.001,178.977 56.910,181.593 62.532 C 186.400 72.858,182.938 78.571,167.382 85.989 C 141.438 98.359,140.310 116.832,164.273 136.895 C 169.467 141.244,169.512 140.294,164.414 133.923 C 148.249 113.725,149.651 103.000,169.779 92.865 C 189.864 82.752,194.702 70.604,184.003 57.149 C 181.584 54.106,181.350 53.397,181.766 50.363 C 182.207 47.140,181.985 46.640,177.204 40.089 C 168.748 28.502,164.053 18.595,165.379 15.138 C 166.598 11.962,171.946 15.869,176.096 22.966 C 180.617 30.698,182.501 31.035,189.939 25.443 C 195.329 21.392,196.480 21.492,195.767 25.951 C 195.018 30.634,192.744 34.458,187.978 39.048 C 177.694 48.952,185.027 56.970,195.683 47.473 C 215.652 29.675,213.005 0.137,192.305 9.773 C 190.007 10.843,188.045 11.719,187.945 11.719 C 187.846 11.719,186.654 10.172,185.297 8.282 C 180.034 0.954,171.484 -1.980,164.392 1.108 M196.921 56.692 C 193.294 59.969,191.819 63.788,192.511 68.113 C 193.597 74.905,201.595 86.719,205.108 86.719 C 207.311 86.719,209.661 89.917,210.969 94.697 C 212.679 100.944,209.547 104.819,198.408 110.236 C 177.609 120.351,177.081 135.886,197.001 151.663 C 200.860 154.718,200.798 153.754,196.793 148.425 C 184.517 132.087,185.866 123.803,202.011 116.380 C 217.929 109.060,221.821 96.948,211.717 86.175 C 210.379 84.749,209.375 82.824,209.375 81.685 C 209.375 80.557,207.878 77.659,205.925 75.006 C 202.339 70.134,199.378 63.643,200.315 62.706 C 201.193 61.827,203.359 63.587,205.756 67.125 C 208.746 71.540,209.641 71.728,213.716 68.802 C 218.830 65.130,218.139 70.363,212.783 75.877 C 207.672 81.138,210.377 85.743,216.265 81.808 C 223.146 77.209,227.546 62.965,223.093 59.704 C 221.129 58.266,216.827 58.282,214.608 59.736 C 212.985 60.800,212.760 60.724,211.363 58.646 C 207.674 53.157,201.725 52.352,196.921 56.692 M163.672 162.965 C 136.363 165.729,121.547 168.953,104.392 175.865 C 66.485 191.137,47.778 216.398,50.071 249.219 C 60.107 392.925,194.033 452.248,270.795 346.988 C 270.907 346.836,273.021 348.359,275.495 350.374 C 302.901 372.699,338.112 358.702,348.562 321.327 C 356.967 291.267,333.724 259.810,304.619 261.857 L 301.035 262.109 302.147 256.641 C 311.669 209.798,272.892 173.548,203.516 164.437 C 194.371 163.235,169.919 162.332,163.672 162.965 M189.272 178.153 C 253.693 182.535,300.230 215.777,285.482 246.875 C 260.670 299.199,128.589 308.705,77.939 261.812 C 38.231 225.049,89.776 179.894,174.219 177.469 C 176.152 177.413,182.926 177.721,189.272 178.153 M193.359 196.160 C 176.291 197.596,139.569 213.650,108.524 233.247 L 105.161 235.370 107.463 237.262 C 126.581 252.968,177.630 274.840,198.419 276.233 C 230.630 278.390,241.776 252.795,214.503 239.300 L 208.735 236.446 214.620 233.888 C 228.127 228.016,233.046 221.291,230.568 212.087 C 227.237 199.717,214.729 194.363,193.359 196.160 M203.422 210.892 C 207.511 212.872,209.814 215.431,210.836 219.134 C 212.662 225.748,209.064 229.810,196.875 234.894 C 194.963 235.692,195.007 235.752,198.995 237.775 C 217.852 247.340,211.723 263.431,189.657 262.292 C 175.620 261.567,147.626 250.747,129.035 238.860 L 124.866 236.195 130.597 232.769 C 164.534 212.480,190.555 204.663,203.422 210.892 M314.039 289.441 C 328.212 296.770,328.404 318.307,314.412 331.204 C 305.728 339.209,293.287 336.200,287.340 324.657 L 285.755 321.580 287.452 316.063 C 288.385 313.029,290.298 306.157,291.703 300.791 C 295.237 287.292,302.624 283.538,314.039 289.441 " stroke="none" fill="#010002" fill-rule="evenodd"></path></g></svg>